<?xml version="1.0" standalone="no"?>
<!DOCTYPE svg PUBLIC "-//W3C//DTD SVG 20010904//EN"
 "http://www.w3.org/TR/2001/REC-SVG-20010904/DTD/svg10.dtd">
<svg version="1.0" xmlns="http://www.w3.org/2000/svg"
 width="2048.000000pt" height="2048.000000pt" viewBox="0 0 2048.000000 2048.000000"
 preserveAspectRatio="xMidYMid meet">
<metadata>
Created by potrace 1.11, written by Peter Selinger 2001-2013
</metadata>
<g transform="translate(0.000000,2048.000000) scale(0.100000,-0.100000)"
fill="#000000" stroke="none">
<path d="M12900 15795 c-25 -13 -277 -139 -560 -280 -283 -141 -514 -261 -512
-266 1 -6 41 -49 87 -96 l85 -86 -59 -61 c-66 -69 -110 -112 -613 -598 -111
-108 -244 -236 -294 -285 -50 -48 -168 -162 -262 -252 -94 -90 -198 -189 -230
-220 -32 -31 -139 -132 -237 -226 -98 -93 -233 -222 -299 -286 -67 -64 -146
-140 -178 -170 -31 -30 -145 -139 -254 -244 -108 -104 -218 -210 -243 -234
-25 -24 -176 -170 -336 -326 -159 -155 -311 -302 -336 -326 -26 -24 -122 -116
-214 -204 -92 -88 -177 -168 -189 -178 -11 -10 -52 -48 -91 -85 -39 -37 -120
-112 -179 -167 -60 -55 -124 -113 -141 -130 -18 -16 -84 -77 -146 -135 -62
-58 -145 -135 -184 -172 -38 -36 -88 -83 -110 -103 -22 -21 -105 -99 -184
-174 -80 -75 -154 -145 -166 -156 -142 -133 -253 -236 -409 -380 -12 -11 -57
-51 -101 -90 -43 -38 -90 -81 -104 -95 -14 -14 -87 -79 -161 -145 -119 -105
-168 -149 -230 -205 -9 -8 -52 -46 -96 -85 -249 -219 -275 -249 -276 -313 -1
-58 27 -103 81 -132 31 -16 105 -6 139 20 15 11 245 238 512 503 549 545 785
775 1140 1108 31 28 243 234 608 587 115 112 369 354 442 422 25 23 101 95
170 159 69 64 159 148 200 186 41 38 98 90 125 116 28 25 62 57 76 70 81 73
220 202 399 370 74 69 149 138 165 153 25 24 116 109 294 274 54 50 166 156
256 241 45 42 115 108 156 146 41 39 138 129 214 201 77 72 152 142 166 155
15 13 80 74 145 136 66 61 135 126 154 143 19 18 85 79 145 136 61 56 120 111
132 122 13 10 82 75 155 143 72 68 161 151 197 184 190 175 227 209 241 224 8
9 49 45 90 81 41 36 84 73 95 83 19 17 22 15 111 -74 68 -68 94 -88 100 -78
11 18 34 62 199 384 76 149 168 329 205 400 137 265 162 315 158 324 -1 6 -23
-1 -48 -14z"/>
<path d="M8157 15624 c-1 -1 -76 -5 -167 -8 -91 -4 -181 -9 -200 -11 -19 -1
-73 -6 -120 -9 -47 -4 -98 -9 -115 -11 -16 -3 -51 -7 -77 -10 -104 -11 -145
-17 -198 -25 -94 -16 -114 -19 -160 -25 -25 -3 -70 -12 -100 -18 l-55 -12 0
-2438 c0 -1340 -3 -2437 -7 -2437 -5 0 -8 -35 -8 -78 0 -63 3 -79 15 -79 8 0
15 6 15 14 0 7 3 13 8 13 4 0 28 20 53 43 25 23 79 72 120 109 41 37 115 107
165 155 50 48 131 125 180 169 125 115 145 133 274 258 110 106 297 282 424
399 l60 55 2 598 c1 330 5 678 8 774 14 355 17 459 30 1142 1 59 4 110 7 112
16 16 208 30 404 31 250 0 308 -6 705 -70 14 -3 50 -9 80 -15 30 -6 66 -14 80
-16 121 -24 373 -100 530 -161 121 -47 145 -57 290 -130 80 -39 150 -73 156
-75 7 -2 101 83 210 189 110 105 215 206 234 223 19 18 94 87 165 154 176 166
253 237 297 276 35 31 37 34 19 46 -34 24 -186 117 -246 151 -71 40 -420 213
-429 213 -3 0 -29 11 -58 25 -28 14 -55 25 -60 25 -5 0 -27 9 -51 19 -263 117
-884 291 -1207 337 -19 3 -57 9 -85 14 -65 12 -184 28 -260 35 -33 4 -71 8
-85 10 -61 10 -242 23 -430 31 -126 6 -410 11 -413 8z"/>
<path d="M11944 14377 c-6 -7 -42 -40 -80 -73 -38 -34 -85 -77 -105 -95 -19
-19 -70 -65 -113 -104 -43 -38 -91 -81 -106 -95 -15 -14 -67 -61 -115 -105
-123 -112 -232 -214 -352 -329 l-103 -99 19 -31 c201 -318 264 -601 206 -926
-13 -71 -77 -245 -121 -331 -86 -163 -297 -411 -439 -515 -22 -16 -42 -32 -45
-35 -9 -10 -163 -114 -225 -151 -315 -187 -764 -343 -1135 -393 -25 -3 -52 -8
-60 -10 -77 -21 -424 -39 -485 -26 -22 5 -62 12 -90 15 -27 2 -78 8 -111 12
l-62 7 -53 -53 c-30 -28 -103 -98 -164 -153 -60 -56 -119 -111 -130 -122 -12
-11 -41 -38 -66 -59 -24 -22 -89 -81 -144 -131 -55 -51 -113 -104 -130 -119
-37 -34 -229 -212 -265 -246 -15 -14 -87 -81 -161 -150 -74 -69 -178 -168
-232 -220 l-98 -95 -6 -155 c-7 -196 -10 -3778 -3 -3789 3 -4 334 -7 736 -7
l732 1 -2 1935 -1 1935 41 1 c82 2 330 15 364 19 19 2 64 6 100 10 36 3 83 7
105 10 120 14 142 17 165 20 14 2 45 7 70 10 38 5 252 42 340 59 60 11 254 56
307 71 32 9 74 20 93 25 19 4 89 24 155 45 66 20 127 38 135 40 24 5 277 99
376 140 257 105 562 263 793 412 80 52 302 213 327 237 6 6 30 27 54 46 108
87 261 235 360 350 36 41 67 77 70 80 15 13 103 135 157 215 88 133 153 251
207 377 66 155 123 354 150 528 57 362 -8 792 -175 1148 -63 133 -193 354
-256 432 -6 8 -42 53 -79 100 -81 100 -70 88 -213 234 -63 64 -117 116 -120
116 -3 -1 -11 -6 -17 -13z"/>
<path d="M6328 9855 c-2 -2 -35 -5 -73 -9 -39 -4 -81 -8 -95 -10 -14 -3 -52
-7 -85 -10 -33 -4 -71 -8 -85 -10 -14 -2 -54 -6 -90 -10 -36 -4 -81 -9 -100
-11 -35 -5 -83 -10 -170 -20 -25 -3 -64 -7 -87 -10 -24 -3 -62 -7 -85 -10 -24
-3 -63 -7 -88 -10 -25 -3 -63 -7 -85 -10 -103 -12 -140 -16 -142 -19 -1 -1 16
-22 39 -46 22 -25 77 -85 122 -134 44 -50 106 -117 136 -150 30 -33 82 -90
115 -127 33 -37 65 -69 71 -72 6 -3 35 18 65 47 30 28 103 96 164 151 60 55
135 123 165 151 30 28 67 62 81 75 56 50 204 185 231 210 15 14 28 28 28 31 0
5 -28 7 -32 3z"/>
<path d="M6683 9533 c-17 -15 -95 -89 -174 -163 -79 -74 -179 -169 -224 -211
-44 -41 -118 -112 -165 -156 -47 -44 -109 -103 -139 -130 -29 -28 -52 -55 -50
-61 3 -9 153 -171 312 -337 27 -27 87 -92 134 -143 48 -50 88 -91 90 -89 2 3
39 178 49 237 2 14 7 36 9 50 3 14 7 36 10 50 3 14 17 86 31 160 14 74 28 146
30 160 2 14 9 45 14 70 5 25 12 56 14 70 2 14 18 97 35 185 17 88 33 176 36
195 3 19 11 54 17 77 14 59 7 68 -29 36z"/>
</g>
</svg>
